<svg height="480" width="640" xmlns="http://www.w3.org/2000/svg" xmlns:xlink="http://www.w3.org/1999/xlink"><rect x="0" y="0" width="640" height="480" fill="white" stroke-width="2" stroke="#000"></rect><text x="315" y="58.75" font-family="helvetica" font-size="25" stroke="#aaa" fill="#000">tb_client</text><circle r="20" fill="#884EA0" stroke-width="2" stroke="#000" cx="88.75" cy="68.75"></circle><text x="108.75" y="88.75" font-family="helvetica" font-size="15" stroke="#aaa" fill="#000">init</text><line x1="88.75" y1="108.75" x2="88.75" y2="416.25" stroke="#884EA0" stroke-width="2"></line><line x1="88.75" y1="416.25" x2="521.25" y2="416.25" stroke="#884EA0" stroke-width="2"></line><line x1="88.75" y1="108.75" x2="88.75" y2="181.25" stroke="#884EA0" stroke-width="2"></line><line x1="88.75" y1="181.25" x2="206.25" y2="181.25" stroke="#884EA0" stroke-width="2"></line><circle r="40" fill="#CB4335" stroke-width="2" stroke="#000" cx="246.25" cy="186.25"></circle><text x="286.25" y="226.25" font-family="helvetica" font-size="15" stroke="#aaa" fill="#000">ready</text><line x1="246.25" y1="226.25" x2="246.25" y2="298.75" stroke="#CB4335" stroke-width="2"></line><line x1="246.25" y1="298.75" x2="363.75" y2="298.75" stroke="#CB4335" stroke-width="2"></line><circle r="40" fill="#2471A3" stroke-width="2" stroke="#000" cx="403.75" cy="303.75"></circle><text x="443.75" y="343.75" font-family="helvetica" font-size="15" stroke="#aaa" fill="#000">connect</text><line x1="403.75" y1="343.75" x2="403.75" y2="411.25" stroke="#2471A3" stroke-width="2"></line><line x1="403.75" y1="411.25" x2="521.25" y2="411.25" stroke="#2471A3" stroke-width="2"></line><line x1="403.75" y1="263.75" x2="403.75" y2="181.25" stroke="#2471A3" stroke-width="2"></line><line x1="403.75" y1="181.25" x2="286.25" y2="181.25" stroke="#2471A3" stroke-width="2"></line><circle r="20" fill="#aaa" stroke-width="2" stroke="#000" cx="561.25" cy="421.25"></circle><text x="581.25" y="441.25" font-family="helvetica" font-size="15" stroke="#aaa" fill="#000">final</text></svg>