<svg height="480" width="640" xmlns="http://www.w3.org/2000/svg" xmlns:xlink="http://www.w3.org/1999/xlink"><rect x="0" y="0" width="640" height="480" fill="white" stroke-width="2" stroke="#000"></rect><text x="252" y="47" font-family="helvetica" font-size="25" stroke="#aaa" fill="#000">tb_server</text><circle r="20" fill="#884EA0" stroke-width="2" stroke="#000" cx="73" cy="57"></circle><text x="93" y="77" font-family="helvetica" font-size="15" stroke="#aaa" fill="#000">init</text><line x1="73" y1="97" x2="73" y2="428" stroke="#884EA0" stroke-width="2"></line><line x1="73" y1="428" x2="537" y2="428" stroke="#884EA0" stroke-width="2"></line><line x1="73" y1="97" x2="73" y2="146" stroke="#884EA0" stroke-width="2"></line><line x1="73" y1="146" x2="159" y2="146" stroke="#884EA0" stroke-width="2"></line><circle r="40" fill="#CB4335" stroke-width="2" stroke="#000" cx="199" cy="151"></circle><text x="239" y="191" font-family="helvetica" font-size="15" stroke="#aaa" fill="#000">ready</text><line x1="199" y1="191" x2="199" y2="240" stroke="#CB4335" stroke-width="2"></line><line x1="199" y1="240" x2="285" y2="240" stroke="#CB4335" stroke-width="2"></line><circle r="40" fill="#2471A3" stroke-width="2" stroke="#000" cx="325" cy="245"></circle><text x="365" y="285" font-family="helvetica" font-size="15" stroke="#aaa" fill="#000">ringing</text><line x1="325" y1="205" x2="325" y2="146" stroke="#2471A3" stroke-width="2"></line><line x1="325" y1="146" x2="239" y2="146" stroke="#2471A3" stroke-width="2"></line><line x1="325" y1="285" x2="325" y2="334" stroke="#2471A3" stroke-width="2"></line><line x1="325" y1="334" x2="411" y2="334" stroke="#2471A3" stroke-width="2"></line><circle r="40" fill="#F4D03F" stroke-width="2" stroke="#000" cx="451" cy="339"></circle><text x="491" y="379" font-family="helvetica" font-size="15" stroke="#aaa" fill="#000">connect</text><line x1="451" y1="299" x2="451" y2="141" stroke="#F4D03F" stroke-width="2"></line><line x1="451" y1="141" x2="239" y2="141" stroke="#F4D03F" stroke-width="2"></line><line x1="451" y1="379" x2="451" y2="423" stroke="#F4D03F" stroke-width="2"></line><line x1="451" y1="423" x2="537" y2="423" stroke="#F4D03F" stroke-width="2"></line><circle r="20" fill="#aaa" stroke-width="2" stroke="#000" cx="577" cy="433"></circle><text x="597" y="453" font-family="helvetica" font-size="15" stroke="#aaa" fill="#000">final</text></svg>